# xmcd
#
# Track frame offsets:
#	150
#	15543
#	28233
#	42336
#	54687
#	73033
#	90123
#	101492
#	129205
#	160324
#	174045
#	191043
#	236072
#
# Disc length: 3390 seconds
#
# Revision: 1
# Processed by: cddbd v1.5.2PL0 Copyright (c) Steve Scherf et al.
# Submitted via: audiograbber 1.83.01
#
DISCID=a00d3c0d
DTITLE=The Golden Gospel Singers - Forever Live - The Best Of 
DYEAR=1900
DGENRE=Gospel
TTITLE0=Callin' On You
TTITLE1=Goin' Up Yonder
TTITLE2=Swing Low, Sweet Chariot
TTITLE3=Didn't It Rain
TTITLE4=My Time Has Come
TTITLE5=Heaven's Highway
TTITLE6=Ride the Chariot
TTITLE7=Stay In My Heart
TTITLE8=Alright Now!
TTITLE9=Can't Nobody Do Me Like Jesus
TTITLE10=Never Turn Back
TTITLE11=Church Medley
TTITLE12=It's All About You, Lord
EXTD=
EXTT0=
EXTT1=
EXTT2=
EXTT3=
EXTT4=
EXTT5=
EXTT6=
EXTT7=
EXTT8=
EXTT9=
EXTT10=
EXTT11=
EXTT12=
PLAYORDER=
